<svg width="28" height="22" viewBox="0 0 28 22" fill="none" xmlns="http://www.w3.org/2000/svg">
<path d="M23.3334 0.333252H4.66675C3.60588 0.333252 2.58847 0.754679 1.83832 1.50482C1.08818 2.25497 0.666748 3.27239 0.666748 4.33325V17.6666C0.666748 18.7275 1.08818 19.7449 1.83832 20.495C2.58847 21.2452 3.60588 21.6666 4.66675 21.6666H23.3334C24.3943 21.6666 25.4117 21.2452 26.1618 20.495C26.912 19.7449 27.3334 18.7275 27.3334 17.6666V4.33325C27.3334 3.27239 26.912 2.25497 26.1618 1.50482C25.4117 0.754679 24.3943 0.333252 23.3334 0.333252ZM23.3334 2.99992L14.6667 8.95992C14.4641 9.07694 14.2341 9.13855 14.0001 9.13855C13.766 9.13855 13.5361 9.07694 13.3334 8.95992L4.66675 2.99992H23.3334Z" fill="black"/>
</svg>
