<svg width="32" height="32" viewBox="0 0 32 32" fill="none" xmlns="http://www.w3.org/2000/svg">
<path d="M11.1792 3.30566C11.8793 3.09457 12.6306 3.12964 13.308 3.40503C13.9854 3.68043 14.5481 4.17953 14.9024 4.81926L15.0208 5.05766L16.08 7.41126C16.4014 8.12564 16.5058 8.91875 16.38 9.69196C16.2543 10.4652 15.904 11.1844 15.3728 11.7601L15.16 11.9713L13.4912 13.5281C13.1904 13.8129 13.416 14.9153 14.504 16.8001C15.4832 18.4961 16.28 19.2881 16.672 19.3313H16.7408L16.8256 19.3153L20.1056 18.3121C20.5464 18.1769 21.0168 18.1715 21.4606 18.2967C21.9044 18.4218 22.3027 18.6721 22.608 19.0177L22.7536 19.2017L24.9248 22.2097C25.3503 22.7992 25.5623 23.5162 25.526 24.2424C25.4896 24.9686 25.207 25.6607 24.7248 26.2049L24.5296 26.4065L23.6624 27.2289C22.8836 27.9663 21.9095 28.4647 20.8558 28.6646C19.8021 28.8646 18.7131 28.7578 17.7184 28.3569C14.6224 27.1089 11.8096 24.2577 9.25435 19.8321C6.69435 15.3953 5.63035 11.5281 6.10555 8.21606C6.24935 7.21489 6.66162 6.27135 7.29857 5.48566C7.93552 4.69996 8.77338 4.10144 9.72315 3.75366L10.032 3.65126L11.1792 3.30566Z" fill="black"/>
</svg>
